<?xml version="1.0" encoding="UTF-8" standalone="no"?>
<!DOCTYPE svg PUBLIC "-//W3C//DTD SVG 20010904//EN"
              "http://www.w3.org/TR/2001/REC-SVG-20010904/DTD/svg10.dtd">

<svg xmlns="http://www.w3.org/2000/svg"
     width="1.52in" height="1.24333in"
     viewBox="0 0 456 373">
  <path id="Zaznaczenie"
        fill="#fff" stroke="#fff" stroke-width="1"
        d="M 120.02,10.74
           C 130.41,8.31 132.50,14.85 135.80,23.00
             135.80,23.00 147.28,51.00 147.28,51.00
             148.33,53.44 150.66,59.89 152.50,61.36
             155.57,63.83 162.54,60.44 166.00,59.42
             166.00,59.42 198.00,49.52 198.00,49.52
             202.51,48.56 208.27,48.51 211.57,52.23
             214.72,55.77 214.32,60.89 212.65,65.00
             212.65,65.00 197.08,93.00 197.08,93.00
             197.08,93.00 180.42,117.00 180.42,117.00
             178.22,120.11 173.01,128.19 170.49,130.30
             170.49,130.30 159.00,135.87 159.00,135.87
             152.38,139.61 147.37,144.02 142.67,150.00
             137.62,156.42 134.22,163.27 131.67,171.00
             131.67,171.00 126.86,185.96 126.86,185.96
             125.25,188.78 116.83,196.12 114.00,198.58
             108.40,203.43 88.49,222.64 84.00,224.83
             76.79,228.35 69.51,224.15 69.04,216.00
             69.04,216.00 71.72,179.00 71.72,179.00
             72.08,175.96 72.97,166.40 70.55,164.43
             68.70,162.93 61.65,162.19 59.00,161.75
             59.00,161.75 29.00,157.13 29.00,157.13
             23.78,156.40 16.19,156.04 14.43,149.96
             11.63,140.26 18.09,136.61 25.00,132.00
             25.00,132.00 47.00,117.00 47.00,117.00
             49.54,115.30 55.87,111.56 56.99,108.91
             58.43,105.49 53.02,98.13 51.30,95.00
             51.30,95.00 36.70,69.00 36.70,69.00
             34.29,64.58 31.69,60.23 33.74,55.02
             36.00,49.25 41.60,48.53 47.00,49.30
             47.00,49.30 81.00,59.34 81.00,59.34
             84.30,60.37 91.61,63.44 94.61,61.31
             97.06,59.56 99.60,52.01 100.80,49.00
             100.80,49.00 110.60,25.00 110.60,25.00
             113.05,18.88 113.88,14.11 120.02,10.74 Z
           M 124.00,25.00
           C 120.34,30.06 112.66,50.91 109.80,58.00
             107.65,63.32 105.01,70.07 99.98,73.26
             95.04,76.41 89.10,73.88 84.00,72.42
             84.00,72.42 46.00,61.00 46.00,61.00
             46.00,61.00 62.58,91.00 62.58,91.00
             65.20,95.58 69.46,101.81 69.89,107.00
             70.59,115.33 65.26,119.08 59.00,123.33
             59.00,123.33 28.00,145.00 28.00,145.00
             28.00,145.00 64.00,150.92 64.00,150.92
             70.26,151.95 76.13,151.87 80.61,157.10
             85.69,163.04 83.33,167.32 83.04,174.00
             83.04,174.00 81.00,211.00 81.00,211.00
             86.60,208.35 97.74,196.92 103.00,192.17
             106.32,189.17 114.69,182.30 116.72,178.83
             116.72,178.83 121.69,164.00 121.69,164.00
             124.01,157.64 128.83,148.37 132.90,143.00
             138.29,135.88 143.42,131.43 151.00,126.81
             154.54,124.65 161.21,121.99 163.54,119.73
             163.54,119.73 178.34,99.00 178.34,99.00
             185.25,88.85 196.86,72.29 201.00,61.00
             201.00,61.00 166.00,71.67 166.00,71.67
             161.28,73.20 153.83,76.09 149.00,74.26
             142.89,71.95 140.64,65.52 138.40,60.00
             138.40,60.00 124.00,25.00 124.00,25.00 Z
           M 188.00,267.00
           C 186.06,279.63 182.15,294.22 170.00,300.60
             166.40,302.49 162.06,303.78 158.00,303.96
             147.42,304.42 128.98,298.78 122.64,290.00
             118.03,283.62 117.92,278.46 118.00,271.00
             118.10,263.08 122.29,250.03 124.58,242.00
             124.58,242.00 137.58,195.00 137.58,195.00
             140.92,182.99 143.28,168.05 150.76,158.00
             154.44,153.05 158.60,149.29 164.00,146.31
             172.64,141.56 175.48,143.76 181.66,135.00
             181.66,135.00 203.28,104.00 203.28,104.00
             209.43,95.22 215.26,86.26 224.00,79.76
             236.16,70.71 249.12,67.83 264.00,68.00
             272.23,68.10 280.10,70.63 288.00,72.63
             288.00,72.63 327.00,82.63 327.00,82.63
             327.00,82.63 352.00,89.13 352.00,89.13
             375.51,95.01 396.95,99.80 409.69,123.00
             418.25,138.59 417.57,148.24 419.17,165.00
             419.17,165.00 422.01,194.00 422.01,194.00
             422.01,194.00 422.01,201.00 422.01,201.00
             423.17,208.10 428.47,210.13 433.02,219.00
             437.74,228.20 437.05,234.14 437.00,244.00
             436.96,253.35 433.65,262.03 431.37,271.00
             431.37,271.00 418.37,320.00 418.37,320.00
             416.13,328.86 411.87,348.46 406.61,354.98
             396.73,367.24 381.37,365.94 368.00,361.66
             362.58,359.92 357.34,358.08 353.33,353.82
             347.89,348.04 345.73,339.77 346.04,332.00
             346.24,327.14 349.27,315.71 351.00,311.00
             351.00,311.00 243.00,281.88 243.00,281.88
             243.00,281.88 188.00,267.00 188.00,267.00 Z
           M 258.00,79.29
           C 251.13,80.33 244.19,81.55 238.00,84.90
             221.88,93.62 206.49,120.58 195.58,136.00
             193.26,139.28 187.46,148.31 184.82,150.30
             181.86,152.53 177.48,153.05 174.00,154.47
             168.62,156.67 164.09,160.45 160.52,165.00
             155.21,171.76 153.82,179.92 151.58,188.00
             151.58,188.00 141.37,225.00 141.37,225.00
             141.37,225.00 130.88,263.00 130.88,263.00
             128.91,270.52 127.34,277.52 133.22,283.90
             137.36,288.38 151.91,293.28 158.00,292.39
             162.74,291.71 167.14,288.71 169.94,284.91
             173.55,280.02 175.10,271.08 176.86,265.00
             177.96,261.19 178.94,257.35 183.04,255.74
             186.85,254.24 192.17,256.39 196.00,257.37
             196.00,257.37 226.00,265.37 226.00,265.37
             226.00,265.37 317.00,289.63 317.00,289.63
             317.00,289.63 345.00,297.15 345.00,297.15
             348.20,298.02 356.58,300.05 359.13,301.72
             366.06,306.91 361.11,317.06 359.13,324.00
             358.77,326.39 357.57,330.70 357.47,333.00
             356.97,344.69 365.33,348.84 375.00,351.57
             378.07,352.44 382.87,353.67 386.00,353.32
             400.33,351.68 401.36,338.03 404.42,327.00
             404.42,327.00 420.88,265.00 420.88,265.00
             423.85,253.73 428.44,241.70 424.78,230.00
             420.99,217.87 413.36,216.78 411.47,207.00
             411.47,207.00 410.83,198.00 410.83,198.00
             410.83,198.00 408.09,168.00 408.09,168.00
             407.12,154.12 406.51,140.20 398.94,128.00
             386.79,108.44 368.52,105.26 348.00,100.13
             348.00,100.13 296.00,86.63 296.00,86.63
             285.62,84.03 268.05,78.38 258.00,79.29 Z
           M 255.00,113.65
           C 265.29,111.52 274.18,115.40 284.00,117.87
             284.00,117.87 340.00,132.85 340.00,132.85
             347.33,134.83 363.48,137.70 368.67,142.53
             374.11,147.58 373.62,154.31 374.09,161.00
             374.09,161.00 376.28,186.00 376.28,186.00
             376.86,190.88 378.43,197.85 371.96,199.56
             368.66,200.42 364.24,198.73 361.00,197.88
             361.00,197.88 338.00,191.71 338.00,191.71
             338.00,191.71 261.00,171.13 261.00,171.13
             261.00,171.13 237.00,164.71 237.00,164.71
             233.75,163.79 228.80,162.98 226.43,160.57
             221.91,155.97 225.55,150.32 228.34,146.00
             232.07,140.25 244.85,120.92 249.04,117.21
             251.27,115.23 252.34,114.77 255.00,113.65 Z
           M 365.00,187.00
           C 365.00,187.00 363.04,164.00 363.04,164.00
             362.85,160.20 363.04,154.63 360.28,151.65
             357.30,148.44 342.81,145.61 338.00,144.37
             338.00,144.37 283.00,129.63 283.00,129.63
             278.70,128.52 263.30,123.70 260.00,124.69
             256.69,125.68 254.23,129.29 252.35,132.00
             248.44,137.62 241.26,147.09 239.00,153.00
             239.00,153.00 270.00,161.42 270.00,161.42
             270.00,161.42 365.00,187.00 365.00,187.00 Z
           M 195.00,183.44
           C 202.76,182.45 210.08,184.05 215.47,190.18
             226.30,202.50 221.38,224.62 204.00,227.67
             199.92,228.39 192.80,228.28 189.00,226.64
             175.68,220.88 171.58,202.13 180.53,191.04
             184.55,186.06 188.99,184.60 195.00,183.44 Z
           M 200.00,194.84
           C 195.66,194.82 192.47,195.44 189.65,199.11
             184.00,206.44 189.99,215.82 197.00,216.74
             209.92,218.43 215.91,198.93 200.00,194.84 Z
           M 368.00,230.47
           C 376.86,229.23 385.85,231.37 391.35,239.02
             400.79,252.13 392.67,271.57 377.00,274.53
             351.84,279.29 341.84,249.11 357.18,235.39
             360.32,232.58 364.01,231.42 368.00,230.47 Z
           M 373.00,241.63
           C 356.47,243.07 359.56,262.90 372.00,263.36
             384.26,263.81 389.79,244.14 373.00,241.63 Z" />
</svg>
