<?xml version="1.0" encoding="UTF-8" standalone="no"?>
<!DOCTYPE svg PUBLIC "-//W3C//DTD SVG 20010904//EN"
              "http://www.w3.org/TR/2001/REC-SVG-20010904/DTD/svg10.dtd">

<svg xmlns="http://www.w3.org/2000/svg"
     width="1.99in" height="1.2in"
     viewBox="0 0 597 360">
  <path id="Zaznaczenie #1"
        fill="#fff" stroke="#fff" stroke-width="1"
        d="M 206.00,20.15
           C 206.00,20.15 258.00,20.15 258.00,20.15
             258.00,20.15 357.00,20.15 357.00,20.15
             364.10,20.01 373.00,20.34 377.26,27.02
             378.43,28.85 378.98,30.84 378.53,33.00
             376.58,42.24 364.49,42.99 357.00,43.00
             357.00,43.00 311.00,43.00 311.00,43.00
             308.76,43.01 306.16,42.96 304.02,43.65
             294.39,46.76 297.00,61.85 297.00,70.00
             297.00,75.05 296.13,82.66 299.65,86.61
             302.91,90.27 307.55,89.99 312.00,90.00
             312.00,90.00 365.00,90.00 365.00,90.00
             380.68,90.19 393.49,99.99 406.00,108.33
             420.99,118.32 440.56,128.18 449.91,144.00
             456.78,155.63 456.00,170.02 456.00,183.00
             456.00,183.00 456.00,245.00 456.00,245.00
             456.00,245.00 456.00,272.00 456.00,272.00
             456.00,294.07 455.07,308.80 436.00,323.50
             432.12,326.49 428.61,328.50 424.00,330.13
             417.91,332.29 412.41,332.99 406.00,333.00
             406.00,333.00 245.00,333.00 245.00,333.00
             219.81,332.70 210.80,317.73 196.39,300.00
             192.40,295.09 182.10,281.13 176.99,279.01
             174.18,277.84 170.98,278.00 168.00,278.00
             145.63,277.96 127.13,279.00 111.90,259.00
             98.58,241.50 102.10,222.62 102.00,202.00
             101.94,190.20 98.21,188.02 87.00,188.00
             82.16,187.99 64.46,187.54 61.02,188.65
             58.93,189.32 57.28,190.41 56.01,192.21
             53.77,195.38 54.01,199.32 54.00,203.00
             54.00,203.00 54.00,253.00 54.00,253.00
             53.99,256.83 54.17,260.45 52.31,263.96
             49.06,270.10 41.33,271.99 36.28,266.77
             32.28,262.66 32.01,254.45 32.00,249.00
             32.00,249.00 32.00,139.00 32.00,139.00
             32.00,139.00 32.00,109.00 32.00,109.00
             32.00,103.26 31.55,96.35 33.85,91.00
             37.16,83.33 45.92,81.15 51.30,88.19
             54.14,91.90 53.99,96.58 54.00,101.00
             54.00,101.00 54.00,152.00 54.00,152.00
             54.01,154.66 53.93,157.46 55.01,159.96
             58.65,168.44 74.16,166.00 82.00,166.00
             87.05,166.00 94.66,166.87 98.61,163.35
             102.27,160.09 101.99,155.45 102.00,151.00
             102.02,139.37 101.02,131.28 105.09,120.00
             111.90,101.10 131.68,90.03 151.00,90.00
             151.00,90.00 245.00,90.00 245.00,90.00
             252.58,90.00 269.42,92.33 273.55,84.90
             275.20,81.92 274.99,78.29 275.00,75.00
             275.00,75.00 275.00,56.00 275.00,56.00
             274.85,44.71 270.23,43.02 260.00,43.00
             260.00,43.00 223.00,43.00 223.00,43.00
             216.36,43.00 207.20,43.52 201.00,41.47
             193.69,39.05 189.46,31.52 195.28,25.13
             198.38,21.72 201.73,21.24 206.00,20.15 Z
           M 140.00,112.08
           C 129.04,114.96 124.14,121.96 124.00,133.00
             124.00,133.00 124.00,233.00 124.00,233.00
             124.03,249.98 132.93,255.97 149.00,256.00
             149.00,256.00 178.00,256.00 178.00,256.00
             179.95,256.00 183.06,255.88 184.83,256.60
             188.25,258.00 195.90,268.62 198.60,272.00
             198.60,272.00 215.40,293.00 215.40,293.00
             224.24,304.05 227.62,310.98 243.00,311.00
             243.00,311.00 389.00,311.00 389.00,311.00
             389.00,311.00 410.00,311.00 410.00,311.00
             422.03,310.98 428.86,308.06 432.90,296.00
             434.13,292.33 433.99,289.78 434.00,286.00
             434.00,286.00 434.00,167.00 434.00,167.00
             433.99,160.41 433.49,154.56 429.36,149.04
             426.16,144.76 416.79,139.19 412.00,136.00
             404.10,130.73 381.63,114.80 374.00,112.63
             371.40,111.90 368.68,112.00 366.00,112.08
             366.00,112.08 217.00,112.08 217.00,112.08
             217.00,112.08 167.00,112.08 167.00,112.08
             167.00,112.08 140.00,112.08 140.00,112.08 Z
           M 522.00,131.21
           C 522.00,131.21 536.00,131.21 536.00,131.21
             545.67,131.00 556.00,130.52 562.58,139.02
             568.67,146.87 567.00,169.72 567.00,180.00
             567.00,180.00 567.00,282.00 567.00,282.00
             567.00,291.16 568.07,314.61 564.73,322.00
             562.63,326.62 557.84,330.71 553.00,332.20
             550.08,333.10 547.02,333.00 544.00,333.00
             544.00,333.00 524.00,333.00 524.00,333.00
             510.26,332.83 503.17,324.38 503.00,311.00
             503.00,311.00 503.00,175.00 503.00,175.00
             503.00,161.60 499.67,141.85 513.00,133.85
             515.72,132.22 518.94,131.93 522.00,131.21 Z
           M 187.00,159.51
           C 206.91,158.32 213.38,185.54 195.00,192.99
             192.61,193.96 189.56,194.10 187.00,193.96
             176.41,193.36 168.36,181.09 172.34,171.00
             175.00,164.27 180.24,161.01 187.00,159.51 Z
           M 270.00,159.50
           C 286.63,158.42 295.63,178.46 282.96,189.79
             280.40,192.08 277.43,193.69 274.00,194.15
             263.65,195.54 252.95,185.63 254.37,175.00
             255.49,166.56 262.14,161.25 270.00,159.50 Z
           M 353.00,159.51
           C 369.03,158.55 378.62,177.18 366.90,188.90
             364.34,191.46 361.62,193.23 358.00,193.79
             347.09,195.49 335.85,186.24 337.51,175.00
             338.77,166.37 344.86,161.31 353.00,159.51 Z" />
</svg>
