<?xml version="1.0" encoding="UTF-8" standalone="no"?>
<!DOCTYPE svg PUBLIC "-//W3C//DTD SVG 20010904//EN"
              "http://www.w3.org/TR/2001/REC-SVG-20010904/DTD/svg10.dtd">

<svg xmlns="http://www.w3.org/2000/svg"
     width="1.94in" height="2.02333in"
     viewBox="0 0 582 607">
  <path id="gear"
        fill="#333" stroke="none" stroke-width="1"
        d="
           M 252.00,6.10
           C 244.14,7.78 235.77,11.13 230.21,17.09
             223.97,23.78 222.14,31.48 220.12,40.00
             220.12,40.00 212.63,73.00 212.63,73.00
             211.38,78.09 209.20,93.24 205.70,96.19
             205.70,96.19 192.00,103.11 192.00,103.11
             184.06,107.19 176.40,111.68 169.00,116.67
             165.60,118.96 158.85,124.83 155.00,124.79
             155.00,124.79 136.00,119.00 136.00,119.00
             123.23,114.74 98.49,105.52 86.00,105.04
             62.14,104.11 52.88,122.16 42.72,140.00
             42.72,140.00 30.00,162.00 30.00,162.00
             23.34,173.58 13.17,187.43 13.00,201.00
             12.75,221.67 19.87,226.81 34.09,240.18
             34.09,240.18 57.99,261.92 57.99,261.92
             60.91,264.61 67.63,270.13 69.92,273.00
             72.44,277.14 70.61,282.41 69.92,287.00
             69.92,287.00 69.92,314.00 69.92,314.00
             70.05,317.74 71.95,328.22 70.81,330.72
             69.52,333.52 58.93,342.27 56.00,345.03
             43.16,357.17 18.22,375.16 13.76,392.00
             12.78,395.69 12.96,400.16 13.00,404.00
             13.16,417.31 21.21,427.89 27.58,439.00
             27.58,439.00 46.58,472.00 46.58,472.00
             52.19,481.78 57.55,491.16 68.00,496.60
             74.29,499.87 80.13,500.08 87.00,500.00
             97.39,499.88 125.66,489.78 137.00,486.00
             137.00,486.00 155.58,480.21 155.58,480.21
             158.48,480.34 167.05,487.34 170.00,489.33
             176.75,493.88 183.77,498.01 191.00,501.74
             191.00,501.74 203.94,507.90 203.94,507.90
             205.24,508.62 206.14,509.15 207.02,510.39
             208.33,512.26 212.24,530.45 213.00,534.00
             213.00,534.00 219.12,561.00 219.12,561.00
             220.49,566.81 221.13,571.29 223.45,577.00
             229.08,590.81 241.18,598.82 256.00,599.00
             256.00,599.00 311.00,599.00 311.00,599.00
             331.63,599.00 348.94,601.22 360.96,580.00
             364.76,573.28 365.90,565.47 367.40,558.00
             367.40,558.00 373.40,529.00 373.40,529.00
             374.46,523.73 375.83,511.37 380.14,508.35
             380.14,508.35 392.00,502.68 392.00,502.68
             392.00,502.68 416.00,488.31 416.00,488.31
             418.95,486.38 426.25,480.14 429.28,480.14
             429.28,480.14 447.00,485.67 447.00,485.67
             458.51,489.50 487.48,499.87 498.00,500.00
             502.49,500.05 505.60,500.19 510.00,498.98
             528.21,493.99 535.56,477.05 544.15,462.00
             544.15,462.00 561.42,432.00 561.42,432.00
             567.31,421.72 571.86,415.40 572.00,403.00
             572.24,381.60 559.81,372.77 545.00,359.72
             545.00,359.72 528.00,344.17 528.00,344.17
             525.31,341.74 516.29,334.05 514.79,331.58
             512.75,328.59 514.30,321.51 514.79,318.00
             514.79,318.00 514.79,293.00 514.79,293.00
             514.99,288.26 512.98,277.33 514.79,274.00
             516.61,270.57 523.83,264.96 527.00,261.97
             527.00,261.97 551.00,240.09 551.00,240.09
             563.84,228.19 572.08,221.71 572.00,203.00
             571.94,190.03 566.37,181.89 560.15,171.00
             560.15,171.00 542.85,141.00 542.85,141.00
             532.99,123.73 524.03,105.01 501.00,105.01
             487.56,105.01 463.49,114.17 450.00,118.67
             446.61,119.80 431.47,125.00 429.00,124.76
             425.70,124.44 416.37,117.22 413.00,115.00
             413.00,115.00 391.00,102.26 391.00,102.26
             391.00,102.26 381.06,97.32 381.06,97.32
             375.36,94.00 374.82,83.08 373.60,77.00
             371.27,65.35 366.06,34.94 361.14,26.00
             349.90,5.61 333.30,6.00 313.00,6.10
             313.00,6.10 286.00,6.10 286.00,6.10
             286.00,6.10 252.00,6.10 252.00,6.10 Z
           M 225.00,493.00
           C 210.52,491.78 189.07,478.47 177.00,470.33
             173.33,467.86 162.28,458.96 159.00,458.37
             155.75,457.78 144.73,462.11 141.00,463.33
             141.00,463.33 101.00,476.00 101.00,476.00
             93.98,478.32 86.44,481.72 79.00,479.03
             70.94,476.12 68.20,469.90 64.28,463.00
             64.28,463.00 46.42,432.00 46.42,432.00
             40.47,421.62 31.32,410.41 33.21,398.00
             34.63,388.69 42.49,383.56 49.00,377.85
             49.00,377.85 77.00,353.28 77.00,353.28
             79.59,351.03 89.05,343.10 90.52,340.96
             92.99,337.35 91.80,333.02 91.28,329.00
             91.28,329.00 89.00,305.00 89.00,305.00
             88.90,296.02 89.90,286.89 91.13,278.00
             91.72,273.72 93.18,267.88 90.52,264.09
             90.52,264.09 76.00,250.84 76.00,250.84
             76.00,250.84 47.00,224.93 47.00,224.93
             39.91,218.49 31.92,212.78 32.78,202.00
             33.40,194.31 39.33,185.69 43.15,179.00
             43.15,179.00 58.70,152.00 58.70,152.00
             61.36,147.14 68.12,134.94 71.52,131.30
             80.46,121.71 89.48,125.83 100.00,128.86
             100.00,128.86 138.00,141.00 138.00,141.00
             138.00,141.00 157.00,146.89 157.00,146.89
             163.45,147.43 171.97,139.31 177.00,135.64
             183.39,130.98 196.89,122.60 204.00,119.31
             204.00,119.31 221.86,111.59 221.86,111.59
             226.18,108.79 227.92,95.22 229.00,90.00
             229.00,90.00 236.60,54.00 236.60,54.00
             237.87,47.71 239.61,37.13 243.11,32.04
             247.34,25.88 252.86,24.09 260.00,24.00
             260.00,24.00 325.00,24.00 325.00,24.00
             342.77,24.22 344.33,35.94 347.42,50.00
             347.42,50.00 356.00,90.00 356.00,90.00
             357.25,96.25 358.09,108.93 364.06,112.09
             364.06,112.09 379.00,118.42 379.00,118.42
             386.99,121.91 398.80,129.16 406.00,134.21
             410.77,137.55 420.44,146.72 426.00,146.92
             429.25,147.03 441.12,142.58 445.00,141.34
             445.00,141.34 483.00,129.34 483.00,129.34
             494.82,125.55 503.80,121.59 513.82,132.09
             517.63,136.09 522.90,146.69 525.86,152.00
             525.86,152.00 547.14,190.00 547.14,190.00
             551.40,197.68 555.02,204.62 549.86,213.00
             547.04,217.56 537.42,225.39 533.00,229.28
             533.00,229.28 508.00,251.72 508.00,251.72
             505.29,254.10 495.17,262.55 493.90,265.04
             492.23,268.29 494.46,274.29 494.83,278.00
             494.83,278.00 496.00,310.00 496.00,310.00
             496.00,310.00 494.49,330.00 494.49,330.00
             493.85,333.93 491.76,337.62 494.49,341.13
             494.49,341.13 509.00,354.15 509.00,354.15
             509.00,354.15 537.00,378.72 537.00,378.72
             544.17,384.96 553.16,391.30 552.21,402.00
             551.64,408.47 545.42,418.13 542.23,424.00
             542.23,424.00 516.37,470.00 516.37,470.00
             511.86,476.25 505.91,480.44 498.00,479.90
             494.54,479.67 481.05,475.33 477.00,474.00
             477.00,474.00 446.00,464.16 446.00,464.16
             442.80,463.13 427.58,457.90 425.42,458.17
             422.93,458.49 411.34,468.08 408.00,470.33
             395.94,478.46 374.45,491.79 360.00,493.00
             360.00,493.00 349.60,545.00 349.60,545.00
             348.35,551.22 345.46,567.39 342.30,571.98
             337.48,579.01 330.81,579.99 323.00,580.00
             323.00,580.00 262.00,580.00 262.00,580.00
             254.19,579.99 247.52,579.01 242.70,571.98
             239.12,566.78 237.19,553.58 235.79,547.00
             235.79,547.00 225.00,493.00 225.00,493.00 Z
           M 290.00,208.30
           C 290.00,208.30 274.00,210.26 274.00,210.26
             258.08,213.23 241.90,221.06 230.00,232.09
             186.48,272.44 189.83,343.33 238.00,378.51
             253.50,389.84 272.18,394.27 291.00,395.68
             291.00,395.68 307.00,394.27 307.00,394.27
             347.40,388.49 378.45,357.45 384.13,317.00
             384.13,317.00 385.49,300.00 385.49,300.00
             383.01,261.04 364.71,231.08 328.00,215.43
             318.25,211.27 300.54,207.76 290.00,208.30 Z
           M 285.00,228.21
           C 285.00,228.21 294.00,228.21 294.00,228.21
             302.84,228.01 309.72,229.69 318.00,232.69
             345.93,242.83 365.32,271.45 365.99,301.00
             366.40,319.30 358.81,338.41 346.71,351.99
             341.85,357.44 332.60,363.91 326.00,367.19
             314.96,372.68 301.24,375.14 289.00,375.00
             281.04,374.90 272.37,372.52 265.00,369.60
             256.24,366.12 247.89,361.45 241.01,354.91
             221.51,336.38 214.22,305.46 222.52,280.00
             229.76,257.78 246.59,239.30 269.00,231.89
             273.46,230.41 280.28,229.20 285.00,228.21 Z" />
</svg>
