<svg xmlns="http://www.w3.org/2000/svg" width="186.24" height="194.208" viewBox="0 0 582 607" xmlns:v="https://vecta.io/nano"><path fill="#fff" d="M252 6.1c-7.86 1.68-16.23 5.03-21.79 10.99-6.24 6.69-8.07 14.39-10.09 22.91l-7.49 33c-1.25 5.09-3.43 20.24-6.93 23.19l-13.7 6.92c-7.94 4.08-15.6 8.57-23 13.56-3.4 2.29-10.15 8.16-14 8.12L136 119c-12.77-4.26-37.51-13.48-50-13.96-23.86-.93-33.12 17.12-43.28 34.96L30 162c-6.66 11.58-16.83 25.43-17 39-.25 20.67 6.87 25.81 21.09 39.18l23.9 21.74c2.92 2.69 9.64 8.21 11.93 11.08 2.52 4.14.69 9.41 0 14v27c.13 3.74 2.03 14.22.89 16.72-1.29 2.8-11.88 11.55-14.81 14.31-12.84 12.14-37.78 30.13-42.24 46.97-.98 3.69-.8 8.16-.76 12 .16 13.31 8.21 23.89 14.58 35l19 33c5.61 9.78 10.97 19.16 21.42 24.6 6.29 3.27 12.13 3.48 19 3.4 10.39-.12 38.66-10.22 50-14l18.58-5.79c2.9.13 11.47 7.13 14.42 9.12a208.92 208.92 0 0 0 21 12.41l12.94 6.16c1.3.72 2.2 1.25 3.08 2.49 1.31 1.87 5.22 20.06 5.98 23.61l6.12 27c1.37 5.81 2.01 10.29 4.33 16 5.63 13.81 17.73 21.82 32.55 22h55c20.63 0 37.94 2.22 49.96-19 3.8-6.72 4.94-14.53 6.44-22l6-29c1.06-5.27 2.43-17.63 6.74-20.65l11.86-5.67 24-14.37c2.95-1.93 10.25-8.17 13.28-8.17l17.72 5.53c11.51 3.83 40.48 14.2 51 14.33 4.49.05 7.6.19 12-1.02 18.21-4.99 25.56-21.93 34.15-36.98l17.27-30c5.89-10.28 10.44-16.6 10.58-29 .24-21.4-12.19-30.23-27-43.28l-17-15.55c-2.69-2.43-11.71-10.12-13.21-12.59-2.04-2.99-.49-10.07 0-13.58v-25c.2-4.74-1.81-15.67 0-19 1.82-3.43 9.04-9.04 12.21-12.03l24-21.88c12.84-11.9 21.08-18.38 21-37.09-.06-12.97-5.63-21.11-11.85-32l-17.3-30c-9.86-17.27-18.82-35.99-41.85-35.99-13.44 0-37.51 9.16-51 13.66-3.39 1.13-18.53 6.33-21 6.09-3.3-.32-12.63-7.54-16-9.76l-22-12.74-9.94-4.94c-5.7-3.32-6.24-14.24-7.46-20.32-2.33-11.65-7.54-42.06-12.46-51C349.9 5.61 333.3 6 313 6.1h-27-34zM225 493c-14.48-1.22-35.93-14.53-48-22.67-3.67-2.47-14.72-11.37-18-11.96-3.25-.59-14.27 3.74-18 4.96L101 476c-7.02 2.32-14.56 5.72-22 3.03-8.06-2.91-10.8-9.13-14.72-16.03l-17.86-31c-5.95-10.38-15.1-21.59-13.21-34 1.42-9.31 9.28-14.44 15.79-20.15l28-24.57c2.59-2.25 12.05-10.18 13.52-12.32 2.47-3.61 1.28-7.94.76-11.96L89 305c-.1-8.98.9-18.11 2.13-27 .59-4.28 2.05-10.12-.61-13.91L76 250.84l-29-25.91c-7.09-6.44-15.08-12.15-14.22-22.93.62-7.69 6.55-16.31 10.37-23l15.55-27c2.66-4.86 9.42-17.06 12.82-20.7 8.94-9.59 17.96-5.47 28.48-2.44L138 141l19 5.89c6.45.54 14.97-7.58 20-11.25 6.39-4.66 19.89-13.04 27-16.33l17.86-7.72c4.32-2.8 6.06-16.37 7.14-21.59l7.6-36c1.27-6.29 3.01-16.87 6.51-21.96 4.23-6.16 9.75-7.95 16.89-8.04h65c17.77.22 19.33 11.94 22.42 26L356 90c1.25 6.25 2.09 18.93 8.06 22.09l14.94 6.33c7.99 3.49 19.8 10.74 27 15.79 4.77 3.34 14.44 12.51 20 12.71 3.25.11 15.12-4.34 19-5.58l38-12c11.82-3.79 20.8-7.75 30.82 2.75 3.81 4 9.08 14.6 12.04 19.91l21.28 38c4.26 7.68 7.88 14.62 2.72 23-2.82 4.56-12.44 12.39-16.86 16.28l-25 22.44c-2.71 2.38-12.83 10.83-14.1 13.32-1.67 3.25.56 9.25.93 12.96l1.17 32-1.51 20c-.64 3.93-2.73 7.62 0 11.13L509 354.15l28 24.57c7.17 6.24 16.16 12.58 15.21 23.28-.57 6.47-6.79 16.13-9.98 22l-25.86 46c-4.51 6.25-10.46 10.44-18.37 9.9-3.46-.23-16.95-4.57-21-5.9l-31-9.84c-3.2-1.03-18.42-6.26-20.58-5.99-2.49.32-14.08 9.91-17.42 12.16-12.06 8.13-33.55 21.46-48 22.67l-10.4 52c-1.25 6.22-4.14 22.39-7.3 26.98-4.82 7.03-11.49 8.01-19.3 8.02h-61c-7.81-.01-14.48-.99-19.3-8.02-3.58-5.2-5.51-18.4-6.91-24.98L225 493zm65-284.7l-16 1.96c-15.92 2.97-32.1 10.8-44 21.83-43.52 40.35-40.17 111.24 8 146.42 15.5 11.33 34.18 15.76 53 17.17l16-1.41c40.4-5.78 71.45-36.82 77.13-77.27l1.36-17c-2.48-38.96-20.78-68.92-57.49-84.57-9.75-4.16-27.46-7.67-38-7.13zm-5 19.91h9c8.84-.2 15.72 1.48 24 4.48 27.93 10.14 47.32 38.76 47.99 68.31.41 18.3-7.18 37.41-19.28 50.99-4.86 5.45-14.11 11.92-20.71 15.2-11.04 5.49-24.76 7.95-37 7.81-7.96-.1-16.63-2.48-24-5.4-8.76-3.48-17.11-8.15-23.99-14.69-19.5-18.53-26.79-49.45-18.49-74.91 7.24-22.22 24.07-40.7 46.48-48.11 4.46-1.48 11.28-2.69 16-3.68z"/></svg>