<?xml version="1.0" encoding="UTF-8" standalone="no"?>
<!DOCTYPE svg PUBLIC "-//W3C//DTD SVG 20010904//EN"
              "http://www.w3.org/TR/2001/REC-SVG-20010904/DTD/svg10.dtd">

<svg xmlns="http://www.w3.org/2000/svg"
     width="1.59333in" height="1.54667in"
     viewBox="0 0 478 464">
  <path id="Zaznaczenie"
        fill="#fff" stroke="#fff" stroke-width="2"
        d="M 348.00,13.44
           C 337.33,12.17 327.82,17.01 321.96,26.00
             319.11,30.39 314.47,42.56 312.15,48.00
             312.15,48.00 293.14,93.00 293.14,93.00
             289.57,101.13 279.37,123.30 279.04,131.00
             278.82,135.98 279.65,140.66 282.22,145.00
             286.95,152.97 308.74,169.54 317.00,176.41
             320.53,179.35 332.35,187.64 332.44,192.00
             332.49,194.54 328.39,201.57 327.00,204.00
             327.00,204.00 311.66,229.00 311.66,229.00
             291.03,259.31 261.69,288.10 231.00,308.14
             231.00,308.14 208.00,321.75 208.00,321.75
             205.96,322.78 201.11,325.48 199.00,325.44
             194.32,325.34 186.34,313.71 183.25,310.00
             183.25,310.00 168.25,292.00 168.25,292.00
             159.69,281.64 152.97,271.44 138.00,272.04
             129.33,272.39 117.26,278.63 109.00,282.15
             109.00,282.15 58.00,303.85 58.00,303.85
             49.30,307.58 34.54,312.70 28.18,319.17
             18.08,329.46 20.09,340.48 22.79,353.00
             22.79,353.00 37.12,416.00 37.12,416.00
             39.35,425.70 40.99,437.69 49.09,444.47
             58.11,452.03 74.62,450.13 86.00,450.00
             86.00,450.00 96.00,449.09 96.00,449.09
             96.00,449.09 128.00,445.27 128.00,445.27
             207.25,433.60 284.14,393.12 341.00,336.99
             367.80,310.52 390.04,279.44 408.99,247.00
             408.99,247.00 418.25,229.00 418.25,229.00
             441.59,182.31 452.55,135.79 456.09,84.00
             456.09,84.00 457.00,72.00 457.00,72.00
             457.02,61.29 458.41,50.75 450.79,42.02
             442.87,32.95 430.11,31.86 419.00,29.35
             419.00,29.35 371.00,18.58 371.00,18.58
             371.00,18.58 348.00,13.44 348.00,13.44 Z
           M 349.00,26.29
           C 349.00,26.29 381.00,33.63 381.00,33.63
             381.00,33.63 421.00,43.12 421.00,43.12
             433.78,46.15 443.92,45.84 444.00,62.00
             444.00,62.00 444.00,78.00 444.00,78.00
             444.00,78.00 443.09,88.00 443.09,88.00
             443.09,88.00 438.08,128.00 438.08,128.00
             420.33,233.20 355.14,325.29 265.00,381.42
             245.14,393.79 221.11,406.31 199.00,414.00
             163.68,426.29 131.34,433.53 94.00,436.09
             94.00,436.09 84.00,437.00 84.00,437.00
             84.00,437.00 69.00,437.00 69.00,437.00
             61.19,436.99 56.74,436.21 53.56,428.00
             53.56,428.00 48.63,408.00 48.63,408.00
             48.63,408.00 38.79,367.00 38.79,367.00
             36.95,358.48 32.58,345.21 33.04,337.00
             33.67,325.96 45.47,322.82 54.00,319.15
             54.00,319.15 118.00,291.60 118.00,291.60
             125.98,288.35 136.42,282.16 145.00,286.45
             150.11,289.01 154.60,295.58 158.25,300.00
             158.25,300.00 181.39,328.00 181.39,328.00
             183.66,330.80 190.39,339.73 193.09,341.08
             196.16,342.61 200.18,340.56 203.00,339.22
             203.00,339.22 227.00,325.99 227.00,325.99
             264.92,303.67 305.18,263.50 328.19,226.00
             328.19,226.00 344.24,198.00 344.24,198.00
             345.28,195.96 348.99,189.71 348.42,187.66
             347.80,185.41 338.28,178.14 336.00,176.25
             336.00,176.25 303.00,149.08 303.00,149.08
             297.36,144.37 290.89,139.15 291.27,131.00
             291.52,125.66 299.58,108.79 302.14,103.00
             302.14,103.00 327.58,44.00 327.58,44.00
             332.91,31.50 333.69,24.84 349.00,26.29 Z" />
</svg>
