<?xml version="1.0" encoding="UTF-8" standalone="no"?>
<!DOCTYPE svg PUBLIC "-//W3C//DTD SVG 20010904//EN"
              "http://www.w3.org/TR/2001/REC-SVG-20010904/DTD/svg10.dtd">

<svg xmlns="http://www.w3.org/2000/svg"
     width="1.75667in" height="1.74667in"
     viewBox="0 0 527 524">
  <path id="Zaznaczenie"
        fill="#fff" stroke="#fff" stroke-width="1"
        d="M 328.00,199.00
           C 328.00,199.00 400.00,199.00 400.00,199.00
             402.09,199.00 405.06,199.12 407.00,198.40
             410.90,196.97 419.62,187.38 423.00,184.00
             423.00,184.00 463.00,144.00 463.00,144.00
             467.55,139.45 480.73,125.78 485.00,122.80
             487.15,121.30 489.44,120.14 492.00,119.53
             509.40,115.41 512.82,132.27 514.58,145.00
             515.59,152.35 516.08,159.58 516.00,167.00
             515.91,174.63 513.94,188.36 512.40,196.00
             502.58,244.82 472.54,288.33 427.00,310.22
             408.29,319.21 383.84,325.97 363.00,326.00
             363.00,326.00 347.00,326.00 347.00,326.00
             337.50,325.99 328.21,323.94 319.00,321.77
             316.44,321.16 309.78,318.72 307.58,319.48
             305.02,320.36 296.43,329.57 294.00,332.00
             294.00,332.00 264.00,362.00 264.00,362.00
             264.00,362.00 158.00,468.00 158.00,468.00
             142.61,483.39 125.95,502.82 105.00,510.30
             95.94,513.54 88.49,514.11 79.00,514.00
             41.94,513.56 11.20,475.88 12.01,440.00
             12.84,403.73 41.44,381.56 65.00,358.00
             65.00,358.00 157.00,266.00 157.00,266.00
             157.00,266.00 203.96,219.00 203.96,219.00
             209.17,212.94 205.93,210.67 203.96,202.00
             201.84,192.18 199.89,175.98 200.00,166.00
             200.00,166.00 200.91,156.00 200.91,156.00
             200.91,156.00 202.44,139.00 202.44,139.00
             211.85,80.57 255.14,34.34 311.00,16.98
             321.60,13.68 336.96,10.13 348.00,10.00
             348.00,10.00 364.00,10.00 364.00,10.00
             370.35,10.01 376.74,10.87 383.00,11.92
             386.48,12.51 393.96,14.01 397.00,15.36
             405.77,19.26 410.52,27.97 406.00,37.00
             403.58,41.85 398.82,46.18 395.00,50.00
             395.00,50.00 345.00,100.00 345.00,100.00
             341.23,103.77 330.24,114.49 328.60,119.00
             327.88,120.96 328.00,123.89 328.00,126.00
             328.00,126.00 328.00,199.00 328.00,199.00 Z
           M 389.00,30.00
           C 380.94,27.86 365.35,26.01 357.00,26.00
             304.43,25.92 255.00,55.75 231.37,103.00
             224.35,117.04 217.02,143.35 217.00,159.00
             217.00,159.00 217.00,175.00 217.00,175.00
             217.02,185.81 219.51,196.56 222.13,207.00
             223.03,210.58 226.05,218.83 224.81,222.00
             223.65,224.94 215.63,232.38 213.00,235.00
             213.00,235.00 201.00,246.04 201.00,246.04
             201.00,246.04 184.00,263.00 184.00,263.00
             184.00,263.00 72.00,375.00 72.00,375.00
             59.53,387.47 37.68,406.11 31.46,422.00
             27.77,431.45 27.89,438.16 28.00,448.00
             28.08,454.85 29.88,460.83 32.78,467.00
             42.30,487.25 61.76,498.49 84.00,497.99
             112.25,497.35 127.69,476.31 146.00,458.00
             146.00,458.00 253.00,351.00 253.00,351.00
             253.00,351.00 292.71,311.59 292.71,311.59
             296.25,308.16 302.87,299.60 308.09,300.48
             308.09,300.48 332.00,306.55 332.00,306.55
             344.31,309.03 349.73,309.02 362.00,309.00
             371.44,308.99 384.80,306.72 394.00,304.37
             444.79,291.37 482.86,252.90 495.53,202.00
             499.66,185.40 499.03,176.58 499.00,160.00
             498.99,150.49 497.21,144.95 496.00,136.00
             489.84,140.41 479.81,151.19 474.00,157.00
             474.00,157.00 436.00,195.00 436.00,195.00
             432.01,198.99 419.25,212.84 415.00,214.40
             413.06,215.12 410.09,215.00 408.00,215.00
             408.00,215.00 334.00,215.00 334.00,215.00
             334.00,215.00 318.00,215.00 318.00,215.00
             315.86,214.96 313.23,215.04 311.60,213.40
             309.68,211.48 310.01,207.54 310.00,205.00
             310.00,205.00 310.00,119.00 310.00,119.00
             310.00,116.55 309.87,113.28 310.74,111.00
             312.49,106.40 326.73,93.27 331.00,89.00
             331.00,89.00 368.00,52.00 368.00,52.00
             373.81,46.19 384.59,36.16 389.00,30.00 Z" />
</svg>
